HIERARCHY
ROOT hip
{
	OFFSET 0.000000 0.000000 0.000000 
	CHANNELS 6 Xposition Yposition Zposition Xrotation Zrotation Yrotation
	JOINT abdomen
	{
		OFFSET 0.000000 3.402643 0.000000 
		CHANNELS 3 Xrotation Zrotation Yrotation
		JOINT chest
		{
			OFFSET 0.000000 8.438565 -0.680529 
			CHANNELS 3 Xrotation Zrotation Yrotation
			JOINT neck
			{
				OFFSET 0.000000 10.207942 -0.272212 
				CHANNELS 3 Xrotation Zrotation Yrotation
				JOINT head
				{
					OFFSET 0.000000 3.130431 0.000000 
					CHANNELS 3 Xrotation Zrotation Yrotation
					End Site
					{
						OFFSET 0.000000 3.130435 0.000000 
					}
				}
			}
			JOINT lCollar
			{
				OFFSET 3.470700 6.669187 -0.816635 
				CHANNELS 3 Yrotation Zrotation Xrotation
				JOINT lShldr
				{
					OFFSET 3.198488 0.000000 0.000000 
					CHANNELS 3 Zrotation Yrotation Xrotation
					JOINT lForeArm
					{
						OFFSET 10.139888 0.000000 0.000000 
						CHANNELS 3 Yrotation Zrotation Xrotation
						JOINT lHand
						{
							OFFSET 8.370511 0.000000 0.000000 
							CHANNELS 3 Zrotation Yrotation Xrotation
							End Site
							{
								OFFSET 4.083176 0.000000 0.000000 
							}
						}
					}
				}
			}
			JOINT rCollar
			{
				OFFSET -3.470700 6.669187 -0.816635 
				CHANNELS 3 Yrotation Zrotation Xrotation
				JOINT rShldr
				{
					OFFSET -3.198488 0.000000 0.000000 
					CHANNELS 3 Zrotation Yrotation Xrotation
					JOINT rForeArm
					{
						OFFSET -10.139888 0.000000 0.000000 
						CHANNELS 3 Yrotation Zrotation Xrotation
						JOINT rHand
						{
							OFFSET -8.370511 0.000000 0.000000 
							CHANNELS 3 Zrotation Yrotation Xrotation
							End Site
							{
								OFFSET -4.083176 0.000000 0.000000 
							}
						}
					}
				}
			}
		}
	}
	JOINT lThigh
	{
		OFFSET 5.308129 -1.633274 1.361059 
		CHANNELS 3 Xrotation Zrotation Yrotation
		JOINT lShin
		{
			OFFSET -2.041588 -20.007561 0.000000 
			CHANNELS 3 Xrotation Zrotation Yrotation
			JOINT lFoot
			{
				OFFSET 0.000000 -19.190928 -1.224953 
				CHANNELS 3 Xrotation Yrotation Zrotation
				End Site
				{
					OFFSET 0.000000 -2.449906 4.627600 
				}
			}
		}
	}
	JOINT rThigh
	{
		OFFSET -5.308129 -1.633274 1.361059 
		CHANNELS 3 Xrotation Zrotation Yrotation
		JOINT rShin
		{
			OFFSET 2.041588 -20.007561 0.000000 
			CHANNELS 3 Xrotation Zrotation Yrotation
			JOINT rFoot
			{
				OFFSET 0.000000 -19.190928 -1.224953 
				CHANNELS 3 Xrotation Yrotation Zrotation
				End Site
				{
					OFFSET 0.000000 -2.449906 4.627600 
				}
			}
		}
	}
}
MOTION
Frames: 6
Frame Time: 0.033333
-6.972759 44.373344 -5.719719 0.400391 -0.175781 -20.566458 10.370376 -8.712459 -6.345483 -15.263671 7.636719 8.555985 -8.603516 0.000000 0.000000 10.087891 6.259766 -2.421875 2.000000 -2.000000 0.000000 1.044922 -1.259766 0.019317 3.166080 -1.395561 2.444660 1.649248 -3.400840 -3.509154 -2.000000 2.000000 0.000000 17.978516 -2.900391 -96.533699 20.073566 0.968172 2.555615 -1.668799 3.381294 -3.509732 15.477086 10.546931 15.071564 -10.105000 -4.018218 0.637711 -2.216045 -0.053928 -0.021649 10.094576 -13.678090 -1.403592 -7.205641 4.032456 -0.425189 -1.796852 -0.010293 0.048447 
-7.751202 44.400410 -5.875527 0.869141 -0.722656 -18.574341 10.370376 -8.712459 -6.345483 -15.585938 8.564453 8.125000 -8.603516 0.000000 0.000000 10.878907 5.908203 -2.430636 2.000000 -2.000000 0.000000 1.191406 -1.660156 -0.937777 3.166080 -1.395561 2.444660 1.649248 -3.400840 -3.509154 -2.000000 2.000000 0.000000 17.685547 -3.193359 -96.416565 20.317719 0.958424 2.555027 -1.668799 3.381294 -3.509732 14.392272 12.401421 13.609493 -9.555910 -4.017105 0.616774 -2.147502 -0.062741 -0.014624 11.174738 -12.034704 -3.434200 -8.295940 4.011042 -0.494065 -1.933589 -0.014385 0.036314 
-8.649535 44.418797 -6.084562 1.308594 -1.298828 -16.103739 10.370376 -8.712459 -6.345483 -15.820313 9.423828 7.509768 -8.603516 0.000000 0.000000 11.484376 5.546875 -2.518588 2.000000 -2.000000 0.000000 1.455078 -2.070312 -2.041016 3.156314 -1.395561 2.444660 1.649248 -3.400840 -3.509154 -2.000000 2.000000 0.000000 17.402344 -3.574219 -95.888672 20.825325 0.948088 2.564186 -1.668799 3.381294 -3.509732 13.122371 14.471055 11.333528 -9.194860 -4.017652 0.580406 -1.864982 -0.031896 -0.002181 12.405291 -10.191142 -5.717102 -9.547007 3.991890 -0.574395 -1.943343 -0.028065 0.062397 
-9.516157 44.417007 -6.325167 1.728516 -1.738281 -13.613280 10.370376 -8.712459 -6.345483 -15.957031 10.000001 6.759509 -8.603516 0.000000 0.000000 11.660156 5.410157 -2.596735 2.000000 -2.000000 0.000000 1.835938 -2.353516 -3.144932 3.136783 -1.395561 2.444660 1.649248 -3.400840 -3.509154 -2.000000 2.000000 0.000000 17.216799 -3.876954 -95.029961 21.421036 0.938340 2.563599 -1.668799 3.381294 -3.509732 11.888095 16.263201 8.804818 -9.301647 -4.017982 0.578582 -1.240170 -0.015136 0.004561 13.448436 -8.501755 -7.947143 -10.646825 4.000051 -0.656529 -1.845478 0.023439 0.019830 
-10.253501 44.399132 -6.571992 2.109375 -2.001953 -11.465183 10.370376 -8.712459 -6.345483 -16.074219 10.195313 6.017353 -8.603516 0.000000 0.000000 11.455078 5.625000 -2.586934 2.000000 -2.000000 0.000000 2.265625 -2.402344 -4.199218 3.127018 -1.395561 2.444660 1.649248 -3.400840 -3.509154 -2.000000 2.000000 0.000000 17.080078 -3.876954 -94.297539 21.811661 0.938340 2.563599 -1.668799 3.381294 -3.509732 10.904757 17.486984 7.218986 -9.919416 -4.009743 0.613347 -0.291791 -0.017579 -0.027626 14.042299 -7.128824 -9.910438 -11.382709 3.971776 -0.736620 -1.669569 0.028544 0.021803 
-10.834781 44.386368 -6.800609 2.480469 -2.099609 -9.795280 10.370376 -8.712459 -6.345483 -16.250000 10.156251 5.400391 -8.603516 0.000000 0.000000 11.171876 6.064453 -2.489203 2.000000 -2.000000 0.000000 2.607422 -2.246094 -5.244524 3.117252 -1.395561 2.444660 1.649248 -3.400840 -3.509154 -2.000000 2.000000 0.000000 16.855467 -3.408203 -94.208984 21.762833 0.938340 2.563599 -1.668799 3.381294 -3.509732 10.306754 18.020914 7.852571 -10.886847 -4.000169 0.664077 0.927140 -0.031055 -0.011493 14.194142 -6.102565 -11.606553 -11.668856 3.982217 -0.748963 -1.562147 0.031042 0.012256 
